<svg height="511pt" viewBox="0 0 511 511.85" width="511pt" xmlns="http://www.w3.org/2000/svg"><path d="m246.476562 289.949219-5.902343-54.398438c10.199219 2.800781 21 2.597657 31.101562-.402343l-5.902343 54.800781zm-41.5-87.597657c1.199219-27.402343 23.796876-49 51.199219-49 27.398438 0 50 21.597657 51.199219 49-.398438 18.597657-5.800781 36.796876-15.5 52.699219-2.398438 3.398438-4.300781 6.597657-6.101562 9.699219l4.5-42.199219c.402343-3.300781-1.199219-6.402343-4-8.199219-2.796876-1.703124-6.296876-1.703124-9.097657.097657-12.902343 7.699219-29 7.699219-42 0-2.800781-1.800781-6.300781-1.800781-9.101562-.097657-2.800781 1.699219-4.398438 4.898438-4 8.199219l4.5 42.199219c-1.800781-3.101562-3.800781-6.300781-6.097657-9.699219-9.703124-15.902343-15-34.101562-15.5-52.699219zm51.199219 155.796876c-9.402343 0-17.101562-7.597657-17.101562-17.097657h34.101562c.097657 9.5-7.601562 17.097657-17 17.097657zm34.097657-42c0 4.402343-3.5 7.902343-7.898438 7.902343h-52.5c-4.398438 0-7.898438-3.5-7.898438-7.902343v-1.296876c0-4.402343 3.5-7.902343 7.898438-7.902343h52.5c4.398438 0 7.898438 3.5 7.898438 7.902343zm0 0"/><path d="m256.175781 358.449219c-9.5 0-17.300781-7.800781-17.300781-17.300781v-.296876h34.601562v.296876c0 9.5-7.800781 17.300781-17.300781 17.300781zm-16.800781-17.097657c.101562 9.199219 7.601562 16.597657 16.800781 16.597657s16.699219-7.398438 16.800781-16.597657zm43-17.101562h-52.5c-4.5 0-8.101562-3.699219-8.199219-8.199219v-1.199219c0-4.5 3.699219-8.101562 8.199219-8.203124h52.5c4.5 0 8.101562 3.703124 8.199219 8.203124v1.296876c0 4.5-3.699219 8.101562-8.199219 8.101562zm-52.398438-17c-4.203124 0-7.601562 3.398438-7.703124 7.699219v1.300781c0 4.199219 3.402343 7.601562 7.703124 7.699219h52.5c4.199219 0 7.597657-3.398438 7.699219-7.699219v-1.398438c0-4.203124-3.402343-7.601562-7.699219-7.703124h-52.5zm36.097657-17.101562h-19.800781v-.199219l-5.898438-54.699219.398438.101562c10.203124 2.796876 20.902343 2.597657 30.902343-.402343l.398438-.097657v.398438zm-19.300781-.5h18.902343l5.800781-54.199219c-10 2.902343-20.5 3.101562-30.5.402343zm-19.796876-23.796876-.601562-1c-2.101562-3.703124-4.101562-6.800781-6.101562-9.703124-9.699219-15.898438-15.097657-34.199219-15.597657-52.796876 1.199219-27.601562 23.800781-49.203124 51.398438-49.203124 27.601562 0 50.199219 21.601562 51.5 49.203124-.5 18.699219-5.800781 36.898438-15.597657 52.796876-2.101562 3.101562-4.101562 6.203124-6.101562 9.703124l-.601562 1 4.703124-43.402343c.296876-3.199219-1.203124-6.300781-3.902343-7.898438-2.699219-1.699219-6.199219-1.601562-8.800781.097657-13 7.800781-29.199219 7.800781-42.199219 0-2.699219-1.699219-6.097657-1.699219-8.800781-.097657-2.699219 1.699219-4.199219 4.800781-3.898438 7.898438zm54.796876-53c1.601562 0 3.203124.398438 4.601562 1.296876 2.898438 1.800781 4.5 5.101562 4.101562 8.402343l-4.402343 41c1.800781-3.101562 3.601562-5.902343 5.5-8.699219 9.699219-15.800781 15-34 15.5-52.5-1.199219-27.300781-23.597657-48.703124-51-48.703124-27.300781 0-49.699219 21.402343-51 48.703124.5 18.5 5.800781 36.699219 15.5 52.5 1.902343 2.699219 3.601562 5.5 5.5 8.699219l-4.398438-41c-.402343-3.300781 1.300781-6.601562 4.097657-8.402343 2.902343-1.796876 6.5-1.699219 9.402343.101562 12.898438 7.699219 28.800781 7.699219 41.699219 0 1.601562-.898438 3.199219-1.398438 4.898438-1.398438zm0 0"/><path d="m487.375 344.449219c-4.199219-1.699219-9 .199219-10.800781 4.402343-27.898438 66.199219-83.398438 115.898438-152.199219 136.296876-19.699219 5.902343-39.898438 9.101562-60 9.800781v-17.800781c12.101562-.5 24.300781-1.898438 36.300781-4.398438 14.199219-2.898438 28.199219-7.300781 41.597657-12.898438 4.203124-1.800781 6.101562-6.601562 4.402343-10.800781-1.800781-4.101562-6.601562-6.101562-10.800781-4.402343-12.398438 5.203124-25.300781 9.300781-38.5 12-13.601562 2.800781-27.199219 4.203124-40.898438 4.203124-.101562 0-.300781 0-.402343 0-.097657 0-.300781 0-.398438 0-13.699219 0-27.300781-1.402343-40.902343-4.203124-13.199219-2.699219-26.097657-6.699219-38.5-12-49.398438-21-88.199219-59.796876-109.199219-109.199219-5.199219-12.398438-9.300781-25.300781-12-38.5-2.800781-13.5-4.199219-27.097657-4.199219-40.800781 0-.296876 0-.699219 0-1 0-13.597657 1.398438-27.296876 4.199219-40.796876 2.699219-13.203124 6.699219-26.101562 12-38.5 5.199219-12.203124 11.5-23.902343 18.902343-34.800781 1.199219-1.800781 1.699219-4 1.296876-6.199219-.398438-2.203124-1.699219-4-3.5-5.300781-1.796876-1.199219-4-1.699219-6.199219-1.300781s-4 1.699219-5.300781 3.5c-8 11.800781-14.898438 24.5-20.398438 37.601562-5.699219 13.398438-10 27.398438-12.898438 41.597657-2.402343 11.902343-3.902343 23.902343-4.300781 35.902343-5.902343-.203124-11.800781-.203124-17.601562 0 .5-13.203124 2-26.402343 4.699219-39.601562 6.300781-30.699219 18.402343-59.5 36-85.5 17.300781-25.601562 39-47.300781 64.601562-64.601562 3.800781-2.5 4.800781-7.699219 2.199219-11.5-2.5-3.796876-7.699219-4.699219-11.398438-2.199219-27.300781 18.800781-50.601562 42-69 69.300781-18.800781 27.800781-31.800781 58.601562-38.5 91.5-7 34.199219-7 68.898438 0 103.101562 3.398438 16.398438 8.398438 32.597657 14.898438 48 12.902343 30.5 31.402343 57.898438 54.800781 81.296876 1.601562 1.601562 3.601562 2.402343 5.800781 2.402343s4.300781-.902343 5.800781-2.402343c1.597657-1.597657 2.398438-3.597657 2.398438-5.796876 0-2.203124-.898438-4.300781-2.398438-5.800781-21.902343-21.902343-39.203124-47.5-51.300781-76-6.101562-14.402343-10.800781-29.5-13.902343-44.902343-2.699219-13.398438-4.296876-26.898438-4.699219-40.398438 5.902343-.199219 11.800781-.199219 17.601562 0 .398438 12.300781 1.898438 24.5 4.398438 36.699219 2.902343 14.199219 7.300781 28.199219 12.902343 41.601562 22.699219 53.398438 64.597657 95.300781 118 118 13.398438 5.699219 27.398438 10 41.597657 12.898438 12 2.5 24.199219 3.902343 36.300781 4.402343v17.796876c-44.300781-1.5-87.699219-15.398438-125.5-40.898438-3.800781-2.5-8.898438-1.5-11.398438 2.199219-1.203124 1.800781-1.703124 4-1.300781 6.199219.398438 2.203124 1.699219 4 3.5 5.300781 42.5 28.699219 91.898438 43.902343 142.800781 43.902343 24.699219 0 49.199219-3.601562 73-10.703124 73.597657-21.898438 132.898438-75 162.699219-145.699219 1.898438-4.300781-.101562-9.199219-4.300781-11zm0 0"/><path d="m506.675781 204.25c-3.402343-16.398438-8.402343-32.601562-14.902343-48-19.398438-45.800781-51.398438-84.699219-92.597657-112.5-27.800781-18.800781-58.601562-31.800781-91.5-38.5-34.199219-7-68.902343-7-103.101562 0-16.398438 3.398438-32.597657 8.398438-48 14.898438-2 .902343-3.597657 2.5-4.398438 4.5s-.800781 4.300781.097657 6.300781c.902343 2 2.5 3.601562 4.5 4.402343 2 .796876 4.300781.796876 6.300781 0 14.402343-6.101562 29.5-10.800781 44.902343-13.902343 32-6.5 64.5-6.5 96.5 0 30.699219 6.300781 59.5 18.402343 85.5 36 3.5 2.402343 6.898438 4.800781 10.199219 7.300781-2.699219 3.601562-5.402343 7.101562-8.101562 10.601562-.898438 1.199219-1.800781 2.296876-2.597657 3.398438-14.402343-10.800781-30.203124-19.898438-47.101562-27.101562-13.398438-5.699219-27.398438-10-41.601562-12.898438-29.597657-6-59.597657-6-89.199219 0-14.199219 2.898438-28.199219 7.300781-41.597657 12.898438-26.402343 11.203124-50.101562 27.203124-70.402343 47.5-1.597657 1.601562-2.398438 3.601562-2.398438 5.800781s.898438 4.300781 2.398438 5.800781c3.199219 3.199219 8.402343 3.199219 11.699219 0 18.800781-18.800781 40.703124-33.601562 65.203124-44 12.398438-5.199219 25.296876-9.300781 38.5-12 27.398438-5.601562 55.199219-5.601562 82.597657 0 13.199219 2.699219 26.101562 6.699219 38.5 12 17.902343 7.601562 34.402343 17.5 49.101562 29.398438.300781.300781.597657.5.898438.800781.199219.101562.300781.199219.5.300781 25.402343 20.898438 45.601562 47.699219 58.699219 78.699219 5.203124 12.402343 9.300781 25.300781 12 38.5 2.203124 11 3.601562 22 4 33h-17.597657c-1-21.898438-5.800781-43.800781-14.699219-64.699219-9.5-22.398438-23-42.398438-40.203124-59.601562-1.597657-1.597657-3.597657-2.398438-5.796876-2.398438-2.203124 0-4.300781.898438-5.800781 2.398438-3.199219 3.203124-3.199219 8.5 0 11.703124 15.699219 15.699219 28 33.898438 36.699219 54.296876 8.898438 21 13.398438 43.203124 13.5 65.300781-.101562.402343-.101562.800781-.101562 1.199219 0 .402343 0 .902343.101562 1.300781-.199219 33.101562-10.101562 65.800781-29.300781 94.199219-8.597657 12.703124-18.699219 24-30.097657 33.902343l-10.800781-14c17.199219-15.101562 31-34 40.199219-55.699219 3.898438-9.300781 6.898438-18.902343 8.898438-28.800781.902343-4.5-2-8.800781-6.5-9.800781-4.398438-.898438-8.796876 2-9.699219 6.398438-1.800781 8.800781-4.5 17.402343-8 25.601562-9 21.300781-23 39.601562-40.699219 53.699219-.199219.101562-.398438.300781-.601562.402343-.296876.199219-.597657.5-.796876.699219-9.300781 7.199219-19.601562 13.300781-30.703124 18-33.796876 14.300781-72.597657 14.300781-106.398438 0-33-14-58.898438-39.902343-72.898438-72.902343-14.300781-33.796876-14.300781-72.597657 0-106.398438 5.199219-12.300781 12.097657-23.601562 20.296876-33.601562.203124-.199219.5-.5.703124-.699219.199219-.199219.398438-.5.597657-.800781 13.699219-16.296876 31.199219-29.199219 51.300781-37.699219 33.800781-14.300781 72.601562-14.300781 106.398438 0 33 14 58.902343 39.902343 72.902343 72.902343 3.5 8.199219 6.199219 16.898438 8 25.699219.398438 2.199219 1.699219 4 3.5 5.199219s4 1.601562 6.199219 1.199219c2.199219-.398438 4-1.699219 5.199219-3.5s1.601562-4 1.199219-6.199219c-2-9.800781-5-19.5-9-28.800781-15.699219-36.898438-44.699219-65.898438-81.597657-81.597657-16.402343-6.902343-33.800781-10.902343-51.402343-11.800781v-17.5c30.902343 1.5 61.300781 11.5 87.203124 29 1.398438.898438 3 1.398438 4.597657 1.398438 2.699219 0 5.300781-1.398438 6.800781-3.597657 2.5-3.800781 1.601562-8.902343-2.199219-11.5-30.800781-20.800781-67.402343-31.902343-104.199219-32-.203124 0-.300781 0-.5 0-.101562 0-.203124 0-.300781 0-12.5 0-25.101562 1.199219-37.402343 3.796876-4.5.902343-7.296876 5.300781-6.398438 9.703124.898438 4.5 5.300781 7.296876 9.699219 6.398438 8.601562-1.800781 17.402343-2.898438 26.199219-3.300781v17.699219c-17.597657.902343-35 4.902343-51.398438 11.800781-20.199219 8.601562-38.101562 21.199219-52.699219 36.902343l-13.5-11.300781c16.5-18 36.699219-32.199219 59.398438-41.902343 2-.898438 3.601562-2.5 4.402343-4.5.796876-2 .796876-4.296876-.101562-6.296876-1.800781-4.203124-6.601562-6.101562-10.800781-4.402343-33.597657 14.199219-62.097657 37.699219-82.5 67.902343-35.398438 52.796876-41.898438 119.296876-17.097657 177.796876 14.199219 33.601562 37.699219 62.101562 68 82.5 1.398438.902343 3 1.402343 4.597657 1.402343 2.699219 0 5.300781-1.402343 6.800781-3.601562 2.5-3.800781 1.5-8.898438-2.199219-11.5-27.601562-18.597657-49-44.597657-62-75.300781-22.601562-53.398438-16.699219-113.898438 15.800781-162 1.699219-2.5 3.5-5 5.398438-7.398438l13.5 11.300781c-7.300781 9.800781-13.5 20.5-18.398438 32.097657-16 37.902343-16 81.402343 0 119.300781 15.699219 36.902343 44.699219 65.902343 81.597657 81.601562 18.902343 8 38.902343 12 59.601562 12s40.800781-4 59.597657-12c10.101562-4.300781 19.601562-9.601562 28.402343-15.800781l10.597657 14.101562c-10 7.097657-20.796876 13.097657-32.199219 17.898438-42.199219 17.898438-90.699219 17.898438-132.898438 0-2-.800781-4.199219-.898438-6.300781 0-2 .800781-3.601562 2.398438-4.5 4.398438s-.898438 4.300781 0 6.300781c.800781 2 2.398438 3.601562 4.398438 4.5 23.101562 9.800781 47.601562 14.699219 72.902343 14.699219s49.800781-4.898438 72.898438-14.699219c33.601562-14.199219 62.101562-37.699219 82.5-67.898438 19.699219-29.199219 30.5-62.601562 32-96.5h17.5c-.398438 11-1.800781 22.097657-4 33-2.699219 13.199219-6.699219 26.097657-12 38.398438-15.597657 36.699219-41.300781 67.902343-74.398438 90.300781-3.800781 2.5-4.699219 7.699219-2.199219 11.5 1.5 2.300781 4.097657 3.601562 6.796876 3.601562 1.703124 0 3.300781-.5 4.601562-1.402343 35.699219-24.097657 63.5-57.800781 80.300781-97.5 5.699219-13.398438 10-27.398438 12.898438-41.597657 6-29.601562 6-59.601562 0-89.203124-2.898438-14.199219-7.300781-28.199219-12.898438-41.597657-13.300781-31.300781-33.101562-58.601562-58-80.402343 1-1.296876 1.898438-2.597657 2.898438-3.898438l.402343-.5c2.398438-3.199219 4.898438-6.398438 7.398438-9.699219 27.5 23.898438 49.300781 53.699219 63.601562 87.597657 6.097657 14.402343 10.796876 29.5 13.898438 44.902343 6.5 32 6.5 64.5 0 96.5-.398438 2.199219 0 4.398438 1.199219 6.199219s3.101562 3.101562 5.300781 3.5c.5.101562 1.101562.199219 1.601562.199219 3.898438 0 7.296876-2.800781 8.097657-6.597657 7.101562-34.203124 7.101562-68.902343.101562-103.101562zm0 0"/></svg>