<svg width="511" height="511" viewBox="0 0 511 511" fill="none" xmlns="http://www.w3.org/2000/svg">
<g clip-path="url(#clip0)">
<path d="M246.492 289.468L240.599 235.159C250.781 237.956 261.564 237.753 271.649 234.758L265.756 289.468H246.492ZM205.061 202.015C206.258 174.658 228.818 153.097 256.175 153.097C283.528 153.097 306.092 174.658 307.289 202.015C306.891 220.582 301.498 238.751 291.815 254.627C289.42 258.02 287.521 261.214 285.723 264.31L290.216 222.181C290.617 218.886 289.019 215.789 286.222 213.995C283.43 212.295 279.936 212.295 277.14 214.093C264.259 221.779 248.188 221.779 235.21 214.093C232.413 212.295 228.919 212.295 226.123 213.995C223.327 215.692 221.732 218.886 222.13 222.181L226.622 264.31C224.825 261.214 222.828 258.02 220.535 254.627C210.848 238.751 205.56 220.582 205.061 202.015V202.015ZM256.175 357.553C246.788 357.553 239.102 349.968 239.102 340.484H273.147C273.244 349.968 265.558 357.553 256.175 357.553ZM290.216 315.623C290.216 320.018 286.722 323.512 282.33 323.512H229.918C225.527 323.512 222.032 320.018 222.032 315.623V314.328C222.032 309.933 225.527 306.439 229.918 306.439H282.33C286.722 306.439 290.216 309.933 290.216 314.328V315.623Z" fill="white"/>
<path d="M256.175 357.854C246.691 357.854 238.903 350.066 238.903 340.582V340.285H273.447V340.582C273.447 350.066 265.659 357.854 256.175 357.854V357.854ZM239.402 340.785C239.503 349.969 246.991 357.355 256.175 357.355C265.359 357.355 272.846 349.969 272.948 340.785H239.402ZM282.33 323.711H229.918C225.425 323.711 221.83 320.018 221.732 315.526V314.329C221.732 309.836 225.425 306.241 229.918 306.139H282.33C286.823 306.139 290.419 309.836 290.516 314.329V315.623C290.516 320.116 286.823 323.711 282.33 323.711ZM230.019 306.74C225.823 306.74 222.43 310.132 222.329 314.426V315.725C222.329 319.917 225.725 323.314 230.019 323.411H282.432C286.624 323.411 290.017 320.018 290.118 315.725V314.329C290.118 310.132 286.722 306.74 282.432 306.638H230.019V306.74ZM266.057 289.667H246.289V289.468L240.4 234.859L240.798 234.961C250.984 237.753 261.666 237.554 271.649 234.559L272.047 234.461V234.859L266.057 289.667ZM246.788 289.167H265.659L271.45 235.058C261.467 237.956 250.984 238.155 241.001 235.46L246.788 289.167ZM227.024 265.41L226.423 264.412C224.325 260.715 222.329 257.622 220.332 254.725C210.649 238.853 205.259 220.582 204.76 202.015C205.957 174.46 228.522 152.894 256.073 152.894C283.629 152.894 306.189 174.46 307.488 202.015C306.989 220.684 301.697 238.853 291.916 254.725C289.818 257.821 287.821 260.917 285.825 264.412L285.224 265.41L289.919 222.08C290.216 218.886 288.718 215.789 286.024 214.194C283.329 212.498 279.835 212.596 277.237 214.292C264.259 222.08 248.087 222.08 235.108 214.292C232.413 212.596 229.021 212.596 226.322 214.194C223.627 215.891 222.13 218.987 222.43 222.08L227.024 265.41ZM281.73 212.498C283.329 212.498 284.928 212.896 286.324 213.793C289.217 215.591 290.816 218.886 290.419 222.181L286.024 263.113C287.821 260.017 289.619 257.221 291.514 254.428C301.197 238.654 306.489 220.485 306.989 202.015C305.791 174.76 283.43 153.393 256.073 153.393C228.818 153.393 206.457 174.76 205.158 202.015C205.657 220.485 210.949 238.654 220.632 254.428C222.531 257.123 224.228 259.919 226.123 263.113L221.732 222.181C221.33 218.886 223.031 215.591 225.823 213.793C228.72 211.999 232.312 212.096 235.21 213.894C248.087 221.581 263.963 221.581 276.84 213.894C278.438 212.997 280.033 212.498 281.73 212.498V212.498Z" fill="white"/>
<path d="M486.99 343.877C482.798 342.181 478.005 344.076 476.207 348.272C448.355 414.362 392.947 463.978 324.261 484.343C304.594 490.236 284.429 493.429 264.361 494.127V476.356C276.442 475.857 288.621 474.461 300.601 471.965C314.777 469.071 328.753 464.676 342.13 459.088C346.326 457.29 348.221 452.497 346.525 448.305C344.727 444.21 339.934 442.214 335.742 443.91C323.364 449.105 310.483 453.196 297.306 455.89C283.727 458.686 270.152 460.086 256.475 460.086C256.374 460.086 256.175 460.086 256.074 460.086C255.976 460.086 255.773 460.086 255.676 460.086C241.999 460.086 228.42 458.686 214.841 455.89C201.664 453.196 188.787 449.202 176.405 443.91C127.089 422.945 88.3525 384.213 67.3874 334.892C62.1968 322.514 58.102 309.634 55.4073 296.456C52.6112 282.979 51.215 269.404 51.215 255.723C51.215 255.427 51.215 255.025 51.215 254.725C51.215 241.15 52.6112 227.473 55.4073 213.996C58.102 200.815 62.0954 187.938 67.3874 175.56C72.578 163.377 78.8683 151.697 86.2583 140.817C87.4555 139.019 87.9547 136.823 87.553 134.628C87.1553 132.428 85.8566 130.634 84.0589 129.336C82.265 128.139 80.0655 127.639 77.8699 128.037C75.6744 128.435 73.8766 129.734 72.578 131.531C64.5912 143.313 57.7043 155.991 52.2134 169.071C46.5236 182.447 42.23 196.423 39.3364 210.599C36.938 222.482 35.4405 234.462 35.0427 246.442C29.1502 246.239 23.2615 246.239 17.4704 246.442C17.9696 233.261 19.4671 220.083 22.1618 206.906C28.4521 176.258 40.5336 147.505 58.102 121.548C75.3741 95.989 97.0373 74.3258 122.596 57.0537C126.391 54.5579 127.389 49.3673 124.792 45.5728C122.296 41.7823 117.105 40.8814 113.412 43.3773C86.1569 62.1468 62.8948 85.3075 44.527 112.563C25.7574 140.318 12.779 171.067 6.09089 203.911C-0.897484 238.053 -0.897484 272.695 6.09089 306.841C9.48369 323.213 14.4754 339.385 20.9646 354.762C33.8455 385.211 52.3148 412.564 75.6744 435.924C77.2733 437.522 79.2699 438.322 81.4655 438.322C83.6611 438.322 85.7592 437.421 87.2567 435.924C88.8517 434.328 89.6511 432.332 89.6511 430.136C89.6511 427.937 88.7542 425.843 87.2567 424.345C65.3907 402.479 48.1186 376.924 36.0411 348.471C29.9496 334.093 25.2582 319.02 22.1618 303.644C19.4671 290.267 17.8721 276.79 17.4704 263.312C23.3629 263.113 29.2516 263.113 35.0427 263.312C35.4405 275.593 36.938 287.772 39.4339 299.95C42.3314 314.126 46.7225 328.103 52.3148 341.483C74.9763 394.793 116.805 436.625 170.119 459.287C183.495 464.977 197.472 469.27 211.647 472.164C223.627 474.66 235.806 476.06 247.888 476.559V494.326C203.661 492.829 160.334 478.953 122.596 453.496C118.802 451 113.713 451.998 111.217 455.691C110.016 457.489 109.517 459.685 109.918 461.88C110.316 464.08 111.615 465.874 113.412 467.172C155.842 495.824 205.158 511.002 255.976 511.002C280.634 511.002 305.094 507.406 328.855 500.316C402.33 478.454 461.533 425.441 491.284 354.859C493.179 350.565 491.182 345.675 486.99 343.877V343.877Z" fill="white"/>
<path d="M506.259 203.911C502.862 187.54 497.87 171.363 491.381 155.991C472.015 110.266 440.068 71.432 398.937 43.6773C371.182 24.9078 340.433 11.9294 307.589 5.24128C273.447 -1.74709 238.801 -1.74709 204.659 5.24128C188.287 8.63408 172.115 13.6258 156.738 20.115C154.742 21.0158 153.147 22.6108 152.347 24.6075C151.548 26.6042 151.548 28.9011 152.445 30.8978C153.346 32.8945 154.941 34.4934 156.937 35.2929C158.934 36.0884 161.231 36.0884 163.228 35.2929C177.606 29.2014 192.679 24.51 208.055 21.4136C240.002 14.9244 272.448 14.9244 304.395 21.4136C335.043 27.7039 363.796 39.7854 389.753 57.3538C393.247 59.7522 396.64 62.1466 399.935 64.6425C397.241 68.2381 394.542 71.7322 391.847 75.2264C390.95 76.4237 390.05 77.5195 389.254 78.6192C374.876 67.8364 359.101 58.7538 342.231 51.5627C328.854 45.8729 314.878 41.5793 300.698 38.6857C271.15 32.6956 241.199 32.6956 211.647 38.6857C197.471 41.5793 183.495 45.9743 170.118 51.5627C143.76 62.7472 120.1 78.7206 99.833 98.9838C98.238 100.583 97.4386 102.579 97.4386 104.775C97.4386 106.971 98.3355 109.069 99.833 110.566C103.027 113.76 108.221 113.76 111.513 110.566C130.282 91.7965 152.148 77.0203 176.608 66.6392C188.986 61.4486 201.863 57.3538 215.044 54.6591C242.397 49.0668 270.151 49.0668 297.504 54.6591C310.682 57.3538 323.562 61.3472 335.94 66.6392C353.813 74.2281 370.286 84.1101 384.96 95.9888C385.261 96.2891 385.557 96.4879 385.857 96.7882C386.056 96.8896 386.158 96.9871 386.356 97.0885C411.717 117.952 431.882 144.709 444.958 175.657C450.153 188.039 454.244 200.916 456.938 214.093C459.138 225.075 460.534 236.057 460.932 247.038H443.363C442.365 225.176 437.572 203.31 428.688 182.447C419.204 160.085 405.727 140.118 388.552 122.944C386.957 121.349 384.96 120.549 382.765 120.549C380.565 120.549 378.471 121.446 376.974 122.944C373.78 126.142 373.78 131.43 376.974 134.628C392.647 150.301 404.927 168.47 413.612 188.834C422.496 209.799 426.988 231.966 427.089 254.027C426.988 254.428 426.988 254.826 426.988 255.224C426.988 255.626 426.988 256.125 427.089 256.523C426.891 289.569 417.005 322.214 397.837 350.565C389.254 363.247 379.169 374.525 367.79 384.411L357.007 370.435C374.177 355.358 387.955 336.491 397.139 314.828C401.031 305.543 404.026 295.957 406.023 286.075C406.924 281.582 404.026 277.289 399.534 276.29C395.143 275.393 390.751 278.287 389.851 282.678C388.053 291.464 385.358 300.052 381.864 308.237C372.879 329.503 358.902 347.773 341.232 361.847C341.033 361.949 340.834 362.148 340.632 362.249C340.335 362.448 340.035 362.748 339.836 362.947C330.551 370.134 320.267 376.226 309.184 380.917C275.443 395.194 236.707 395.194 202.962 380.917C170.017 366.94 144.162 341.081 130.185 308.136C115.908 274.395 115.908 235.659 130.185 201.914C135.375 189.634 142.262 178.352 150.448 168.368C150.651 168.169 150.947 167.869 151.15 167.67C151.349 167.471 151.548 167.171 151.747 166.871C165.423 150.601 182.894 137.72 202.962 129.234C236.707 114.957 275.443 114.957 309.184 129.234C342.129 143.211 367.989 169.07 381.965 202.016C385.459 210.201 388.154 218.886 389.952 227.672C390.35 229.868 391.648 231.665 393.446 232.863C395.244 234.06 397.44 234.462 399.635 234.06C401.831 233.662 403.628 232.363 404.826 230.566C406.023 228.768 406.425 226.572 406.023 224.377C404.026 214.592 401.031 204.909 397.038 195.624C381.365 158.787 352.413 129.835 315.576 114.162C299.201 107.271 281.831 103.277 264.259 102.38V84.9095C295.11 86.4071 325.458 96.3904 351.317 113.861C352.713 114.758 354.312 115.257 355.907 115.257C358.602 115.257 361.199 113.861 362.697 111.666C365.192 107.871 364.295 102.778 360.501 100.185C329.751 79.4187 293.211 68.3355 256.475 68.2381C256.272 68.2381 256.175 68.2381 255.976 68.2381C255.874 68.2381 255.773 68.2381 255.675 68.2381C243.196 68.2381 230.615 69.4353 218.335 72.0286C213.843 72.9295 211.05 77.3206 211.947 81.7156C212.844 86.2082 217.239 89.0004 221.63 88.1034C230.218 86.3057 239.004 85.2098 247.786 84.8081V102.478C230.218 103.379 212.844 107.372 196.473 114.259C176.307 122.846 158.435 135.423 143.861 151.1L130.384 139.818C146.856 121.848 167.022 107.672 189.684 97.9854C191.68 97.0885 193.279 95.4896 194.079 93.4929C194.874 91.4962 194.874 89.2032 193.977 87.2065C192.179 83.0104 187.387 81.1151 183.194 82.8115C149.652 96.9871 121.2 120.448 100.831 150.601C65.4917 203.31 59.0025 269.7 83.7621 328.103C97.9377 361.648 121.399 390.101 151.649 410.466C153.045 411.367 154.644 411.866 156.239 411.866C158.934 411.866 161.531 410.466 163.029 408.27C165.525 404.476 164.526 399.386 160.833 396.789C133.277 378.222 111.914 352.266 98.9361 321.613C76.372 268.304 82.2646 207.904 114.711 159.882C116.407 157.387 118.205 154.891 120.1 152.496L133.578 163.778C126.289 173.563 120.1 184.244 115.21 195.823C99.2364 233.662 99.2364 277.09 115.21 314.925C130.883 351.766 159.835 380.718 196.672 396.391C215.543 404.378 235.51 408.371 256.175 408.371C276.839 408.371 296.908 404.378 315.673 396.391C325.758 392.098 335.242 386.806 344.028 380.617L354.608 394.695C344.625 401.781 333.846 407.771 322.463 412.564C280.334 430.432 231.914 430.432 189.785 412.564C187.788 411.764 185.593 411.667 183.495 412.564C181.498 413.363 179.899 414.958 179.002 416.955C178.105 418.952 178.105 421.249 179.002 423.245C179.802 425.242 181.397 426.841 183.393 427.738C206.456 437.522 230.916 442.413 256.175 442.413C281.433 442.413 305.893 437.522 328.952 427.738C362.498 413.562 390.95 390.101 411.315 359.952C430.981 330.801 441.764 297.454 443.262 263.612H460.733C460.335 274.594 458.935 285.673 456.739 296.557C454.045 309.735 450.051 322.612 444.759 334.892C429.188 371.53 403.527 402.682 370.484 425.043C366.69 427.539 365.793 432.729 368.289 436.524C369.786 438.821 372.38 440.119 375.074 440.119C376.775 440.119 378.37 439.62 379.668 438.719C415.308 414.662 443.063 381.015 459.836 341.381C465.526 328.005 469.819 314.028 472.713 299.853C478.703 270.3 478.703 240.35 472.713 210.798C469.819 196.622 465.424 182.645 459.836 169.269C446.557 138.02 426.789 110.765 401.932 89.0004C402.93 87.7057 403.827 86.4071 404.826 85.1084L405.227 84.6093C407.622 81.4154 410.118 78.2214 412.614 74.9261C440.068 98.7849 461.832 128.536 476.109 162.378C482.197 176.757 486.888 191.829 489.985 207.206C496.474 239.153 496.474 271.599 489.985 303.546C489.587 305.741 489.985 307.937 491.182 309.735C492.379 311.533 494.278 312.831 496.474 313.229C496.973 313.33 497.574 313.428 498.073 313.428C501.965 313.428 505.358 310.632 506.157 306.841C513.247 272.695 513.247 238.053 506.259 203.911V203.911Z" fill="white"/>
</g>
<defs>
<clipPath id="clip0">
<rect width="511" height="511" fill="white"/>
</clipPath>
</defs>
</svg>
